<?xml version="1.0" encoding="UTF-8"?>
<svg width="100%" height="100%" viewBox="0 0 12384 14357" version="1.1" xmlns="http://www.w3.org/2000/svg" xmlns:xlink="http://www.w3.org/1999/xlink" xml:space="preserve" style="fill-rule:evenodd;clip-rule:evenodd;stroke-miterlimit:10;"><style>svg{fill:currentColor;}}</style><g><path d="M947.291,3381.22c-143.017,180.9 163.071,376.979 281.421,462.15c104.221,74.992 285.091,197.496 391.446,59.308c106.575,-138.475 -56.763,-282.383 -156.084,-365.154c-115.675,-96.4 -373.262,-337.842 -516.783,-156.304m777.883,602.842c-85.717,111.379 -193.717,232.8 -336.246,268.15c-129.408,32.095 -259.445,-19.221 -367.629,-87.925c-131.675,-83.621 -261.237,-197.467 -298.908,-355.48c-41.871,-175.625 42.187,-351.483 147.108,-487.87c103.884,-135.046 251.888,-258.713 431.129,-258.275c159.409,0.387 300.225,97.216 412.267,201.754c92.254,86.079 173.8,197.1 178.817,327.912c5.604,146.1 -81.2,280.842 -166.538,391.734"></path><path d="M1875.23,2434.37c-66.554,55.666 -61.5,124.504 -11.496,187.708c122.388,154.692 260.913,302.771 396.738,444.546c32.75,34.183 79.096,70.804 121.521,30.129c68.175,-65.358 11.225,-207.225 -9.655,-282.225c-16.783,-60.292 -82.52,-212.725 -27.245,-261.988c19.866,-17.7 40.658,-18.812 59.171,5.763c50.404,66.917 96.858,140.867 148.383,206.983c42.204,54.154 92.521,104.729 135.208,158.963c14.109,17.925 7.388,44.216 -4.537,53.612c-136.292,107.417 -269.725,218.817 -395.292,338.592c-61.012,58.196 -118.754,120.012 -176.863,180.879c-20.404,21.371 -50.429,10.129 -67.062,-5.729c-21.375,-20.379 -24.904,-50.113 -8.413,-67.3c6.596,-6.875 21.138,-14.904 24.446,-18.258c34.921,-35.375 -15.441,-86.071 -39.025,-110.296c-141.179,-145.025 -292.279,-302.867 -442.05,-439.846c-26.008,-23.788 -76.241,-70.817 -111.2,-36.542c-10.1,9.904 -16.641,24.284 -24.179,32.138c-23.862,24.866 -55.183,15.112 -71.812,-0.738c-21.375,-20.379 -22.784,-52.341 -3.667,-72.296c65.942,-68.812 135.792,-134.02 204.75,-199.783c101.142,-96.462 203.412,-192.279 309.75,-282.375c21.954,-18.604 51.283,-17.171 73.208,9.433c12.529,15.205 24.846,49.642 -3.679,73.65c-16.304,13.721 -46.112,29.142 -77,54.98"></path><path d="M3097.42,2188.8c-67.779,-114.863 -232.375,-462.163 -419.096,-348.646c-53.771,32.696 -59.954,91.425 -29.55,143.475c43.434,74.354 87.096,155.454 135.084,229.433c64.45,99.358 134.437,197.6 204.454,294.004c31.8,43.792 81.571,73.192 131.692,40.629c153.166,-99.516 51.024,-234.154 -22.584,-358.895m-123.479,566.758c-67.125,46.146 -130.071,99.004 -194.592,148.225c-17.95,13.692 -42.512,11.683 -63.421,-15.729c-22.9,-30.025 -17.166,-53.05 1.288,-66.967c4.921,-3.708 19.217,-10.371 24.137,-14.004c39.484,-29.113 -3.325,-87.217 -22.42,-114.108c-65.446,-92.155 -129.984,-191.817 -197.7,-284.6c-53.967,-73.938 -113.375,-146.9 -169.421,-217.809c-21.567,-27.287 -63.763,-81.996 -103.029,-54.512c-11.192,7.833 -19.605,20.816 -26.634,26.116c-26.708,20.142 -51.808,10.505 -69.733,-12.995c-18.913,-24.8 -15.771,-56.159 5.633,-72.317c73.479,-55.475 150.334,-106.817 226.025,-159.054c92.788,-64.034 185.304,-129.529 280.721,-189.104c128.646,-80.317 285.729,-117.546 429.829,-54.28c142.817,62.705 238.588,201.917 307.471,335.971c127.846,248.796 44.888,458.275 -188.646,599.092c-80.141,48.321 -162.521,93.15 -239.508,146.075"></path><path d="M4694.32,1165.54c-15.575,-65.413 -25.479,-85.083 -54.95,-77.988c-16.371,3.942 -32.954,28.284 -36.654,74.867c-17.742,248.988 0.679,503.725 26.696,751.442c15.546,74.341 -69.717,91.354 -121.767,107.458c-58.916,18.229 -115.658,42.483 -147.612,-25.175c-137.071,-216.596 -284.334,-447.337 -470.571,-625.467c-22.475,-21.362 -46.558,-36.808 -60.804,-31.345c-22.154,8.495 -21.084,34.62 -5.442,74.245c55.996,141.85 112.813,287.492 193.658,417.788c43.121,69.504 99.592,148.612 182.834,171.829c54.958,15 60.279,30.721 68.558,53.908c3.858,10.821 5.879,43.375 -18.837,52.03c-41.309,14.462 -84.359,27.558 -125.063,43.225c-60.662,23.35 -121.279,51.429 -181.475,77.47c-21.558,9.33 -42.483,2.267 -53.054,-21.779c-12.55,-28.554 -0.917,-46.221 11.233,-94.229c16.742,-63.987 7.934,-128.062 -6.979,-191.567c-38.758,-165.066 -112.942,-326.529 -171.937,-480.766c-16.146,-42.213 -51.442,-109.279 -106.413,-87.421c-15.642,6.221 -29.671,17.875 -40.708,22.6c-29.954,12.821 -54.404,-8.679 -63.654,-29.717c-11.888,-27.05 -8.359,-53.766 22.058,-66.758c110.821,-47.329 225.554,-85.783 338.512,-127.042c49.888,-18.221 98.892,-41.221 148.292,-59.096c57.546,-20.825 90.338,8.475 118.996,57.471c68.417,116.979 144.383,238.209 224.15,351.079c20.496,29 52.812,86.709 92.921,76.746c42.979,-10.675 37.804,-87.725 37.596,-121.691c-0.813,-131.863 -7.6,-269.496 -15.325,-403.934c-4.642,-50.116 2.791,-101.9 61.112,-112.312c99.275,-17.734 212.342,-43.425 317.796,-64.846c70.083,-14.233 139.871,-33.433 210.608,-45.342c32.246,-5.429 49.592,15.15 54.334,44.288c3.687,22.666 -4.967,53.891 -36.75,59.208c-11.713,1.958 -29.888,-0.458 -46.005,2.863c-45.733,9.429 -34.554,76.962 -29.695,110.254c12.004,82.266 22.966,168.454 38.283,251.471c22.308,120.904 49.579,242.72 75.237,363.108c7.134,33.483 16.892,103.446 65.813,94.929c7.304,-1.271 22.837,-7.254 34.546,-9.212c27.816,-4.655 43.496,17.812 47.708,43.712c4.746,29.142 -3.142,53.679 -30.396,58.167c-78.091,12.854 -157.316,24.679 -234.271,40.854c-73.754,15.504 -147.741,35.779 -221.25,54.504c-26.841,6.838 -44.07,-12.433 -51.587,-40.996c-6.675,-25.383 -1.425,-52.237 25.987,-59.15c11.542,-2.912 28.505,-3.508 35.442,-5.441c44.263,-12.342 27.683,-79.934 21.7,-113.255c-33.083,-184.195 -78.654,-375.291 -122.871,-560.987"></path><path d="M5727.77,827.752c-214.142,13.629 -152.179,385.317 -138.883,515.05c11.804,115.2 33.925,345.35 198.412,334.017c165.496,-11.396 155.8,-241.525 151.413,-358.088c-5.013,-133.2 4.641,-504.7 -210.942,-490.979m68.821,981.583c-129.371,8.913 -275.634,3.892 -382.488,-79.662c-102.475,-80.133 -143.633,-212.858 -162.8,-336.433c-23.329,-150.421 -29.391,-322.48 54.863,-456.713c88.85,-141.55 255.679,-195.971 414.721,-206.933c160.45,-11.063 333.154,22.371 440.804,151.712c100.658,120.934 120.125,289.613 117.987,441.113c-1.75,124.075 -25.579,258.741 -114.383,351.841c-94.342,98.913 -238.092,126.071 -368.704,135.075"></path><path d="M6750.82,1215.21c-12.192,133.925 -46.192,379.409 142.5,400.492c132.195,14.771 185.5,-95.829 200.479,-209.987c16.242,-123.805 6.641,-244.171 -32.842,-364.184c-21.054,-64.012 -67.908,-138.846 -61.7,-206.033c3.371,-36.458 30.004,-46.042 52.092,-43.138c54.416,7.159 108.904,19.421 162.975,27.705c52.408,8.033 106.5,12.166 158.858,21.066c38.846,6.604 52.346,29.45 47.808,53.629c-4.237,22.571 -11.808,34.48 -41.929,67.38c-106.358,109.17 -149.108,263.604 -176.208,409.07c-6.679,40.13 -10.017,60.192 -16.7,100.321c-36.333,232.754 -172.008,369.079 -413.55,345.392c-102.175,-10.017 -217,-34.175 -283.746,-119.454c-67.8,-86.625 -72.883,-210.738 -68.442,-315.679c5.271,-124.63 14.242,-250.446 19.105,-375.096c1.308,-33.529 26.275,-166.346 -35.975,-166.979c-16.58,-0.167 -32.317,3.97 -44.163,3.675c-32.162,-0.8 -45.283,-23.938 -44.742,-53.45c0.634,-34.434 21.713,-50.605 47.363,-49.834c86.658,2.609 174.171,9.325 260.946,14.8c81.1,5.121 163.029,8.95 243.7,16.542c39.196,3.692 52.279,28.496 49.066,57.842c-2.675,24.454 -20.679,48.812 -59.458,44.954c-11.804,-1.175 -23.133,-7.213 -34.946,-8.325c-28.696,-2.7 -34.804,24.975 -38.941,54.079c-13.85,97.483 -22.58,196.679 -31.55,295.212"></path><path d="M7666.82,1151.89c-14.579,-3.371 -33.554,4.275 -39.958,32.933c-39.484,176.654 -75.946,378.117 -21.5,557.208c14.833,48.792 72.979,117.429 63.071,165.596c-6.542,31.804 -28.45,48.767 -54.98,41.683c-46.595,-12.445 -94.575,-28.262 -140.875,-39.104c-51.879,-12.15 -107.804,-19.258 -160.966,-29.279c-21.3,-4.017 -32.692,-27.325 -26.392,-55.287c10.713,-47.555 55.871,-91.163 79.333,-135.088c83.742,-156.783 125.163,-337.921 161.725,-509.183c7.705,-36.071 63.717,-202.992 -13.529,-213.788c-18.996,-2.654 -34.287,-1.796 -47.621,-4.375c-28.333,-5.483 -39.083,-30.804 -33.583,-59.812c4.883,-25.788 25.017,-47.359 53.5,-41.6c88.313,17.862 177.225,42.837 264.975,63.55c77.817,18.366 159.896,35.15 235.879,53.308c47.109,11.258 52.634,61.217 46.242,101.529c-13.192,217.959 35.421,427.675 67.017,641.938c2.65,21.612 20.191,32.637 33.425,37.104c14.704,4.967 33.937,-2.517 42.837,-28.754c49.387,-145.575 91.542,-307.7 52.904,-462.3c-13.146,-52.584 -65.754,-124.246 -50.962,-177.363c7.675,-27.562 40.721,-45.287 77.279,-32.487c46.687,16.35 95.25,35.975 143.121,52.696c50.612,17.675 104.241,33.316 153.546,49.766c36.604,12.213 48.954,46.771 36.808,73.517c-19.313,42.521 -76.292,70.212 -110.846,104.542c-89.563,88.97 -143.429,205.175 -186.375,320.87c-46.15,124.33 -71.058,259.267 -115.596,384.03c-17.496,49.02 -37.017,66.72 -77.158,52.558c-30.45,-10.742 -65.954,-30.125 -99.225,-40.888c-37.067,-11.983 -76.6,-18.566 -113.729,-29.52c-38.838,-11.459 -50.234,-35.842 -56.988,-80.584c-22.741,-155.304 -42.891,-311.004 -67.254,-466.066c-15.75,-100.242 -27.162,-208.071 -63.954,-303.446c-5.388,-13.075 -17.208,-20.909 -30.171,-23.904"></path><path d="M9557.37,1634.27c46.463,25.291 47.842,65.479 21.288,105.675c-34.005,51.487 -70.4,104.516 -101.367,157.504c-26.263,44.933 -43.158,98.55 -67.529,143.208c-16.654,30.517 -44.734,44.863 -70.517,28.946c-90.821,-56.063 -32.975,-237.7 -17.267,-321.025c11.434,-45.513 15.146,-113.938 -33.783,-139.367c-36.5,-18.971 -63.346,-5.312 -82.246,31.109c-99.762,192.262 -220.221,388.233 -289.7,594.641c-15.833,47.038 -27.762,100.275 24.896,125.1c25.875,12.2 47.267,14.471 65.825,24.767c21.213,11.767 28.671,38.625 11.679,68.629c-15.371,27.146 -35.325,44.117 -65.15,27.504c-88,-49.025 -176.279,-98.408 -266.996,-142.487c-90.295,-43.875 -183.245,-82.575 -275.725,-121.325c-31.195,-13.071 -29.979,-39.163 -18.012,-67.963c13.229,-31.833 38.833,-42.604 60.979,-33.275c19.379,8.159 34,23.567 59.575,36.225c52.271,25.88 86.138,-16.141 113.675,-57.737c120.15,-181.488 200.658,-397.346 290.913,-594.046c17.112,-37.292 11.487,-66.8 -25.846,-83.65c-51.879,-23.417 -99.004,23.125 -130.225,59.617c-55.667,63.5 -164.417,219.925 -262.392,184.896c-27.9,-9.975 -33.75,-40.992 -19.954,-73.021c20.183,-46.867 52.212,-92.475 71.325,-141.334c22.521,-57.571 42.162,-118.487 62.071,-176.625c15.237,-44.5 47.554,-70.233 95.662,-48.696c143.804,64.371 288.229,135.926 430.988,205.426c139.487,67.9 281.633,133.17 417.833,207.304"></path><path d="M9647.42,2428.93c40.246,26.271 127.43,97.575 169.717,35.921c62.208,-90.696 115.554,-212.179 132.767,-323.192c8.375,-62.525 4.5,-80.454 -18.079,-94.945c-105.742,-67.859 -286.33,175.837 -334.334,241.512c-44.35,60.671 -5.558,104.479 49.929,140.704m-562.112,127.513c-21.613,-12.117 -26.796,-30.667 -8.996,-58.571c61.471,-96.367 201.563,-162.517 297.992,-227.567c129.996,-87.696 284.258,-181.354 372.775,-311.954c24.916,-36.762 14.033,-82.9 -22.671,-106.112c-14.717,-9.309 -35.929,-14.813 -49.238,-23.063c-32.516,-20.162 -34.379,-53.85 -19.875,-77.7c13.655,-22.442 44.25,-34.954 76.992,-14.392c110.975,69.696 215.958,152.671 323.208,227.867c64.9,45.504 133.813,87.638 198.534,133.558c38.233,27.125 42.033,76.159 13.004,111.671c-88.658,108.454 -141.363,259.8 -193.054,393c-52.767,135.979 -105.017,275.429 -137.05,418.029c-8.959,41.967 -10.342,62.467 -25.292,79.925c-13.879,16.209 -35.425,21.946 -52.337,7.059c-53.459,-47.054 -104.68,-101.413 -160.334,-145.946c-68.25,-54.617 -148.25,-101.258 -220.266,-150.358c-25.638,-17.48 -21.313,-43.163 -4.392,-67.396c16.921,-24.229 43.917,-33.434 65.187,-18.309c10.009,7.117 18.613,19.071 44.513,38.063c39.3,28.817 85.137,-7.492 107.496,-39.154c66.033,-93.509 2.687,-141.213 -79.667,-196.963c-39.096,-26.462 -129.487,-95.825 -167.746,-30.312c-38.375,65.712 10.534,145.8 -26.333,205.637c-14.8,24.025 -41.383,38.15 -64.083,22.079c-45.488,-32.195 -89.692,-72.72 -137.238,-102.712c-40.908,-25.808 -89.267,-42.908 -131.129,-66.379"></path><path d="M10989.8,2751.97c24.35,25.05 17.954,51.767 -4.491,73.4c-16.538,15.942 -47.792,25.892 -71.755,1.187c-7.566,-7.8 -15.437,-23.383 -26.854,-34.545c-34.979,-34.196 -84.137,12.325 -109.766,36.112c-60.48,56.129 -124.992,113.767 -184.121,173.288c-86.663,87.237 -171.109,179.358 -255.288,269.22c-24.491,26.142 -74.475,74.396 -38.412,110.475c4.437,4.442 17.841,13.542 25.571,21.509c20.975,21.621 11.991,47.941 -6.913,66.158c-21.267,20.5 -46.587,27.371 -66.992,6.138c-51.725,-53.825 -101.958,-110.159 -156.341,-161.78c-61.742,-58.608 -127.929,-112.675 -192.196,-168.07c-21.954,-18.921 -16.404,-44.471 2.733,-66.988c17.013,-20.008 42.463,-30.729 64.825,-11.312c5.884,5.108 15.521,17.841 18.988,20.929c36.887,32.837 84.671,-20.854 107.096,-45.517c81.12,-89.225 170.108,-179.092 251.316,-270.721c55.667,-62.812 109.15,-130.741 161.392,-194.775c22.196,-27.204 66.4,-80.004 30.929,-112.929c-10.171,-9.442 -24.692,-15.062 -31.417,-20.9c-25.55,-22.183 -17.262,-53.879 -2.375,-71.392c20.2,-23.758 46.113,-31.908 72.071,-9.391c72.675,63.033 140.967,131.746 210.559,197.687c67.116,63.596 136.812,125.734 201.441,192.217"></path><path d="M11063.3,3196.45c-10.579,-12.23 -31.242,-18.167 -53.15,1.375c-135.883,121.216 -282.683,266.358 -337.692,446.979c-15.158,49.783 -4.391,144.516 -40.704,178.441c-23.487,21.942 -52.337,21.763 -71.087,-1.491c-32.829,-40.721 -64.9,-84.142 -98.496,-124.021c-37.388,-44.383 -81.292,-85.171 -121.221,-127.671c-15.962,-16.992 -12.3,-43.467 9.079,-62.446c36.392,-32.312 100.321,-39.637 145.404,-60.787c160.98,-75.529 301.138,-198.892 430.45,-316.654c29.955,-27.28 169.95,-128.617 110.934,-185.138c-14.817,-14.192 -28.35,-23.396 -38.296,-34.025c-21.129,-22.592 -15.817,-50.287 5.521,-70.708c18.971,-18.154 48.212,-23.163 69.675,-0.229c66.804,71.375 127.583,148.95 190.766,222.95c56.609,66.3 116.967,134.116 171.98,198.495c32.587,38.138 12.175,83.38 -18.413,114.884c-137.975,174.691 -214.946,380.35 -309.871,579.408c-10.091,19.838 -1.312,40.904 7.513,53.608c9.808,14.113 30.662,20.913 53.312,5.038c127.35,-89.267 255.725,-198.129 310.084,-350.363c18.52,-51.87 14.083,-147.133 57.7,-182.104c22.162,-17.771 61.033,-10.541 85.054,24.779c30.741,45.205 61.175,94.505 92.954,140.775c33.842,49.275 70.621,98.946 103.675,146.692c24.617,35.554 15.154,73.213 -10.375,87.096c-41.279,22.446 -106.117,6.358 -155.238,11.4c-126.579,12.983 -240.283,73.304 -343.995,141.225c-110.838,72.587 -209.546,168.662 -319.213,242.696c-43.058,29.066 -70.829,30.346 -96.479,-8.729c-21.521,-32.792 -39.546,-69.53 -61.975,-101.571c-24.413,-34.884 -55.171,-67.054 -80.908,-101.138c-26.863,-35.579 -22.663,-63.391 -2.85,-105.091c69.27,-144.067 141.287,-286.83 209.245,-431.525c43.992,-93.663 95.896,-191.155 118.809,-292.813c2.866,-14.312 -2.788,-28.467 -12.192,-39.337"></path><path d="M1950.31,11663.8c35.655,29.975 150.525,141.983 201.867,74.375c68.021,-89.567 117.963,-215.829 136.063,-326.875c9.158,-64.504 5.945,-83.512 -17.813,-101.725c-106.033,-81.292 -313.958,117.571 -379.967,186.296c-62,64.554 9.625,125.7 59.85,167.929m-697.204,-77.521c-27.441,-26.316 -31.975,-51.012 -7.679,-72.504c85.504,-75.646 270.663,-82.2 383.808,-113.542c152.567,-42.254 340.28,-95.57 448.384,-217.504c31.396,-35.412 21.521,-84.696 -12.05,-115.212c-14.354,-13.05 -36.013,-24.3 -48.863,-36.334c-31.408,-29.412 -27.616,-64.637 -8.304,-84.854c18.179,-19.029 51.917,-23.333 82.463,5.567c102.62,97.092 203.137,200.379 313.129,288.554c65.604,52.592 136.1,99.85 205.787,147.646c39.104,26.821 48.209,76.125 19.425,114.275c-85.404,113.2 -127.908,271.2 -162.137,410.787c-36.167,147.48 -64.288,303.834 -57.321,456.338c2.704,46.967 8.462,70.2 -3.992,89.579c-11.558,17.988 -36.346,23.883 -63.45,5.892c-85.641,-56.854 -166.35,-125.05 -249.783,-185.409c-104.446,-75.554 -215.329,-147.216 -315.896,-226.325c-36.192,-28.47 -33.646,-57.095 -14.879,-79.995c18.767,-22.9 51.954,-25.371 80.892,-2.025c13.612,10.987 25.862,27.508 61.862,55.625c41.796,32.645 97.95,21.179 128.575,-20.93c75.088,-103.233 -43.8,-178.045 -120.171,-240.612c-36.621,-30.004 -153.421,-150.896 -206.346,-85.013c-56.77,70.667 25.888,165.313 -21.845,226.596c-17.475,22.438 -49.588,30.109 -80.855,2.363c-62.783,-55.713 -120.779,-121.954 -182.858,-178.634c-53.725,-49.058 -115.371,-93.958 -167.896,-144.329"></path><path d="M2958.47,12852.3c-144.542,-72.633 -297.713,-175 -375.571,-323.75c-83.404,-159.346 -38.396,-331.708 55.054,-475.763c176.121,-271.487 482.1,-342.266 765.317,-193.166c77.287,40.687 139.295,97.016 193.22,164.912c34.738,43.738 65.017,96.896 116.971,120.771c23.313,10.708 46.413,9.608 56.917,-14.529c6.567,-15.088 10.425,-33.142 12.396,-37.667c13.808,-31.675 38.033,-37.208 68.112,-24.425c26.734,11.367 44.842,35.542 31.292,66.667c-24.771,56.883 -55.154,113.725 -81.204,171.15c-21.496,47.379 -42.883,95.842 -61.892,143.537c-19.883,49.888 -62.187,62.459 -111.062,42.234c-127.617,-52.821 -219.717,-163.304 -214.08,-307.604c3.146,-80.567 25.659,-193.138 -59.983,-239.45c-136.683,-73.917 -252.529,117.22 -306.267,209.583c-53.975,92.758 -103.733,207.483 -82.183,317.75c23.038,117.858 127.917,195.825 228.796,245.796c89.196,44.187 262.229,98.779 316.158,-26.029c12.988,-30.059 14.005,-62.121 21.292,-78.684c12.592,-28.621 44.367,-41.475 86.446,-23.512c36.587,15.621 57.796,42.196 41.454,81.691c-45.612,110.209 -114.8,218.505 -231.642,261.48c-156.404,57.525 -331.408,-11.575 -469.541,-80.992"></path><path d="M4544.7,12343.3c33.012,9.346 40.858,35.346 32.529,65.475c-6.137,22.2 -28.225,46.921 -61.854,37.363c-10.621,-3.017 -25.354,-12.667 -41.054,-16.967c-47.638,-13.05 -69.325,50.375 -81.154,84.029c-27.421,78.009 -58.084,159.3 -82.684,239.684c-36.05,117.808 -67.037,239.446 -98.329,358.7c-11.554,44.021 -22.896,104.762 33.663,119.791c7.887,2.096 29.016,4.963 43.079,8.959c38.171,10.846 47.717,38.975 40.704,64.35c-7.887,28.541 -30.508,46.404 -69.125,35.325c-98.321,-28.2 -195.387,-62.984 -292.537,-95.271c-111.596,-37.088 -224.492,-72.883 -334.046,-115.146c-37.709,-14.546 -45.071,-42.512 -34.092,-70.012c9.763,-24.45 34.517,-41.05 71.733,-26.567c9.796,3.812 28.325,14.404 34.109,16.7c53.633,21.312 83.241,-32.896 99.662,-74.938c43.704,-111.879 95.934,-228.416 138.379,-343.496c29.092,-78.866 53.905,-162.07 79.263,-240.837c11.037,-34.279 32.529,-98.946 -13.413,-117.579c-13.429,-5.446 -29.416,-6.013 -38.041,-9.371c-32.788,-12.758 -35.554,-45.838 -27.013,-67.225c11.592,-29.038 33.667,-44.967 65.85,-32.417c89.721,34.992 179.571,72.634 269.946,102.859c86.117,28.804 176.154,51.608 264.425,76.591"></path><path d="M5339.9,13134.6c18.338,-146.946 94.792,-501.721 -125.296,-540.037c-62.554,-10.892 -110.624,24.412 -125.07,85.491c-19.846,83.93 -44.646,173.055 -60.663,259.846c-21.521,116.596 -34.029,240.042 -50.267,355.325c-9.229,65.521 37.175,115.484 100.213,123.884c63.183,8.42 148.554,22.437 196.729,-32.488c54.008,-61.579 54.896,-176.233 64.354,-252.021m-599.521,317.025c-111.516,-23.437 -224.725,-43.787 -334.812,-72.041c-30.629,-7.863 -50.963,-30.55 -41.929,-63.905c9.896,-36.52 37.941,-44.262 68.216,-36.354c8.075,2.109 27.571,10.446 35.534,12.584c55.546,14.924 78.471,-42.763 89.925,-86.03c28.783,-108.737 65.212,-222.979 92.458,-334.733c21.708,-89.038 38.683,-181.979 56.6,-270.671c7.121,-35.225 21.063,-101.937 -26.462,-115.137c-13.842,-3.846 -29.7,-2.525 -38.588,-4.846c-33.787,-8.825 -41.946,-34.971 -34.204,-63.554c8.171,-30.171 35.142,-46.742 61.325,-39.884c90.171,23.613 180.937,48.4 271.35,67.546c111.225,23.554 225.667,39.671 339.092,56.825c353.591,53.479 518.725,320.242 497.229,665c-22.188,355.817 -358.879,406.288 -649.05,363.484c-128.563,-18.967 -258.25,-51.288 -386.684,-78.284"></path><path d="M7276.96,12474.1c52.066,-10.721 81,16.791 88.066,65.379c8.884,61.087 16.621,125.271 28.763,185.45c10.333,51.2 35.271,102.35 47.292,151.662c8.195,33.629 -5.792,63.804 -41.692,70.021c-118.875,20.596 -195.613,-150.417 -241.504,-233.775c-23.238,-45.237 -60.23,-99.037 -118.005,-90.629c-43.2,6.283 -58.495,32.746 -53.199,73.517c27.599,212.329 35.633,450.375 107.583,654.279c22.554,63.921 53.712,94.391 122.096,82.729c40.091,-6.833 64.2,-19.767 92.891,-24.429c32.788,-5.329 62.738,9.533 68.604,43.583c5.309,30.8 -2.991,57.454 -50.837,65.188c-141.271,22.833 -284.125,38.45 -426.504,52.741c-142.234,14.275 -285.208,27.417 -427.963,33.284c-48.291,1.983 -61.75,-22.509 -62.725,-53.742c-1.079,-34.529 25.213,-55.063 58.329,-56.379c28.98,-1.15 55.23,6.625 95.713,5.433c69.088,-2.033 93.671,-38.679 102.883,-105.383c29.571,-214.063 -10.237,-449.15 -25.733,-662.521c-2.979,-41.004 -23.987,-63.088 -66.779,-61.438c-56.396,2.18 -84.983,65.046 -97.271,112.313c-28.142,90.675 -68.846,273.562 -189.212,277.2c-36.271,1.096 -55.884,-25.588 -54.705,-60.292c1.738,-50.871 16.463,-105.325 15.859,-158.029c-0.713,-61.929 -5.696,-126.033 -8.984,-187.442c-2.587,-48.275 20.167,-82.458 72.921,-81.625c161.725,2.563 330.246,-0.266 492.129,-16.758c157.363,-16.033 315.8,-48.175 471.984,-80.337"></path><path d="M7670.63,13349.9c56.321,-11.495 50.971,-73.304 41.671,-117.104c-25.971,-122.279 -47.375,-253.212 -76.175,-377.454c-18.117,-78.129 -42.079,-157.917 -63.229,-233.621c-9.538,-34.129 -26.629,-99.15 -74.929,-89.491c-14.125,2.82 -27.625,11.004 -36.592,12.9c-34.079,7.204 -53.062,-12.521 -58.979,-41.534c-5.917,-29.016 10.675,-55.879 37.108,-61.446c94.229,-19.862 189.775,-36.4 282.479,-60.091c219.834,-56.179 436.796,-134.617 649.509,-217.521c40.65,-15.842 76.275,-6.713 88.629,25.079c16.104,41.446 28.004,86.65 45.246,127.221c14.975,35.233 35.471,70.729 50.716,105.504c13.463,30.713 5.1,66.158 -28.666,78.704c-69.071,25.659 -149.375,-34.462 -210.138,-63.171c-96.937,-45.791 -205.591,-65.395 -307.171,-37.375c-53.558,14.775 -62.904,79.263 -56.941,125.53c8.183,63.495 24.712,127.316 41.604,188.387c6.479,23.421 26.421,33.771 50.204,26.325c110.613,-34.612 144.763,-166.162 245.471,-204.242c20.942,-7.916 42.767,-0.795 54.512,33.042c13.559,39.054 22.63,80.342 36.671,119.679c16.392,45.925 34.596,91.579 51.213,137.2c12.875,35.359 -8.009,50.242 -30.788,57.984c-104.391,35.47 -207.066,-85.817 -324.45,-48.675c-31.475,9.958 -38.85,28.679 -30.971,55.504c23.113,78.666 45.042,159.137 75.388,235.054c23.892,59.783 66.583,84.542 129.887,63.912c118.034,-38.462 209.217,-123.591 265.592,-235.158c32.6,-64.521 55.725,-166.8 128.583,-196.6c33.246,-13.6 57.75,4.871 66.63,30.042c12.67,35.904 19.3,79.137 32.97,114.441c17.392,44.905 48.65,90.267 68.367,135.63c14.071,32.366 -4.825,67.75 -48.525,84.862c-253.496,99.254 -516.95,174.808 -779.867,243.958c-110.25,28.996 -219.945,64.417 -330.837,88.534c-38.996,8.483 -60.45,-10.996 -66.696,-41.621c-5.917,-29.013 14.275,-54.908 44.821,-61.367c10.179,-2.154 31.642,-1.787 37.683,-3.021"></path><path d="M9050.34,13022.4c-35.342,15.642 -72.025,12.971 -83.125,-13.975c-24.946,-60.537 -41.192,-127.175 -67.384,-187.754c-17.47,-40.413 -45.412,-76.863 -63.491,-115.954c-14.117,-30.534 -8.75,-63.267 42.312,-84.925c87.217,-36.996 206.242,23.879 291.854,46.396c130.93,34.441 270.263,49.25 393.496,-18.759c60.025,-33.125 122.621,-106.133 81.921,-177.437c-62.671,-109.792 -286.629,-13.371 -366.787,9.504c-202.092,57.675 -474.459,100.125 -574.513,-133.688c-90.167,-210.7 89.825,-389.637 259.408,-477.625c73.938,-38.358 151.405,-62.32 237.109,-70.237c43.325,-4 96.337,3.254 134.362,-18.142c23.784,-13.383 34.938,-32.858 25.471,-48.279c-6.883,-11.221 -14.367,-16.279 -20.383,-26.1c-16.334,-26.65 -4.463,-53.212 20.6,-68.917c32.891,-20.604 55.096,-17.137 78.741,20.25c26.9,42.525 49.53,88.434 76.592,130.68c22.629,35.325 48.508,69.679 71.35,104.745c21.342,32.771 16.208,66.025 -18.879,87.846c-172.375,107.184 -389.688,-100.846 -574.338,-9.058c-60.358,30.004 -116.72,92.092 -84.32,162.204c49.779,107.725 244.833,41.063 321.912,20.754c206.717,-54.462 492.013,-144.421 635.721,72.467c138.542,209.079 -74.513,427.883 -246.204,520.7c-98.359,53.171 -202.954,86.833 -316.463,96.633c-61.808,5.334 -132.691,-2.958 -189.95,22.763c-38.116,17.121 -51.546,39.916 -42.041,60.896c3.395,7.495 12.708,17.725 16.787,26.716c12.242,26.967 -6.387,53.525 -39.758,68.296"></path><path d="M10374.6,10876c37.996,-38.55 78.846,-36.996 113.375,1.512c41.163,45.9 83.125,95.325 126.646,138.508c37.079,36.796 87.1,64.721 124.538,98.805c25.508,23.22 29.754,57.15 1.458,84.254c-91.146,87.308 -249.675,-5.875 -340.462,-50.742c-47.25,-25.108 -108.671,-45.833 -153.3,-5.542c-34.371,31.03 -33.484,62.259 -6.542,93.309c139.412,160.679 278.083,358.104 452.096,484.812c57.821,42.104 99.921,45.975 152.616,-3.204c31.863,-29.733 45.675,-55.037 68.375,-76.187c25.955,-24.184 60.467,-29.767 84.234,-4.696c21.5,22.679 28.741,50.112 -9.154,85.371c-111.238,103.5 -228.142,201.475 -345.734,297.65c-116.196,95.033 -233.896,189.191 -355.746,276.745c-41.004,29.463 -66.112,16.663 -84.058,-8.925c-19.837,-28.291 -8.175,-60.579 19.963,-80.745c24.616,-17.642 51.633,-25.755 86.429,-50.675c58.037,-41.571 61.991,-83.767 32.041,-148.025c-91.179,-195.655 -254.845,-370.492 -384.862,-539.846c-25.038,-32.613 -55.475,-38.779 -91.954,-12.667c-46.988,33.633 -39.088,101.933 -23.421,150.313c25.921,95.183 88.304,269.85 -13.021,340.691c-30.971,21.654 -62.608,10.421 -80.546,-19.254c-26.308,-43.529 -43.325,-97.529 -72.721,-141.333c-34.5,-51.421 -73.966,-102.296 -110.4,-151.796c-27.737,-37.688 -25.945,-83.788 18.721,-109.988c140.925,-82.662 288.6,-191.15 420.5,-299.375c130.092,-106.741 252.004,-228.316 370.929,-348.97"></path><path d="M10661.1,7205.3c0,2468.38 -2001.01,4469.39 -4469.39,4469.39c-2468.38,0 -4469.39,-2001.01 -4469.39,-4469.39c0,-2468.38 2001.01,-4469.39 4469.39,-4469.39c2468.38,0 4469.39,2001.01 4469.39,4469.39Z" style="fill:none;fill-rule:nonzero;stroke-width:129.17px;"></path><path d="M11144,7205.3c0,2735.07 -2217.21,4952.28 -4952.28,4952.28c-2735.07,-0 -4952.28,-2217.21 -4952.28,-4952.28c0,-2735.07 2217.21,-4952.28 4952.28,-4952.28c2735.07,0 4952.28,2217.21 4952.28,4952.28Z" style="fill:none;fill-rule:nonzero;stroke-width:345.83px;"></path><path d="M7918.95,5683.7c-1.384,-25.688 17.841,-48.908 40.941,-60.233c23.1,-11.33 49.521,-13.23 75.192,-14.934c14.942,-0.995 29.883,-1.987 44.829,-2.979c22.075,-1.471 44.696,-2.883 65.929,3.329c21.238,6.209 41.167,21.704 46.292,43.225c8.104,34.05 -22.604,65.196 -54.054,80.563c-45.584,22.266 -99.034,27.987 -148.296,15.862c-33.35,-8.208 -68.988,-30.537 -70.833,-64.833"></path><path d="M8210.82,5701.35c13.545,-29.029 21.625,-62.321 12.975,-93.163c-6.63,-23.646 -22.575,-43.791 -41.225,-59.771c-56.005,-47.987 -139.421,-60.47 -207.855,-32.962c-15.166,6.096 -29.758,14.079 -41.787,25.146c-22.525,20.729 -34.304,50.416 -43.908,79.483c-13.821,41.825 -24.721,85.392 -22.917,129.404c1.075,26.292 7.462,53.829 25.742,72.763c20.3,21.021 51.425,27.558 80.645,28.054c99.05,1.683 196.438,-59.183 238.33,-148.954m-193.196,-274.567c45,1.179 89.975,10.158 131.175,28.288c58.591,25.779 108.808,70.216 141.525,125.237c12.212,20.542 22.166,42.963 24.579,66.742c2.342,23.05 -2.517,46.3 -9.875,68.271c-27.517,82.158 -91.971,151.158 -172.071,184.208c-80.096,33.046 -174.454,29.567 -251.9,-9.292c-19.754,-9.908 -38.604,-22.137 -53.75,-38.237c-58.567,-62.246 -47.058,-161.259 -24.412,-243.671c15.108,-54.979 35.866,-112.521 81.483,-146.725c37.437,-28.071 86.475,-36.05 133.246,-34.821"></path><path d="M7446.1,5969.44c0.55,-40.246 -15.084,-80.1 -41.126,-110.796c-40.795,-48.083 -107.483,-72.746 -169.749,-62.775c-62.263,9.967 -136.184,50.967 -159.926,109.383c-17.191,42.296 -95.454,227.438 108.934,286.246c105.816,8.708 213.283,-60.121 249.641,-159.875c7.267,-19.942 11.934,-40.958 12.226,-62.183m-420.571,-151.767c52.266,-76.683 108.808,-98.429 210.075,-109.292c80.629,-8.645 164.112,23.596 221.708,80.684c78.758,78.062 103.133,205.104 61.163,307.746c-41.967,102.641 -146.725,175.766 -257.421,182.316c-110.7,6.546 -222.234,-52.529 -281.209,-146.437c0,-0 -96.983,-105.692 45.684,-315.017"></path><path d="M6091.48,7162.89c-4.513,7.954 -5.634,13.242 -8.55,14.571c-42.463,19.346 -83.55,47.104 -128.163,55.171c-83.862,15.162 -152.95,54.291 -217.775,105.466c-32.862,25.946 -65.492,52.25 -99.45,76.692c-7.208,5.187 -19.742,2.983 -29.821,4.183c3.146,-9.371 3.404,-22.2 9.871,-27.6c86.167,-71.946 170.496,-147.537 279.8,-183.629c56.95,-18.804 115.417,-33.037 173.363,-48.733c4.904,-1.329 11.045,1.925 20.725,3.879"></path><path d="M5574.19,7297.43c-11.892,16.412 -21.35,35.55 -36.109,48.767c-60.116,53.829 -125.575,100.233 -203.104,125.775c-16.291,5.366 -35.404,2.179 -53.216,2.937c13.312,-11.854 24.7,-29.121 40.258,-34.654c80.746,-28.721 144.925,-81.858 209.408,-135.158c9.346,-7.725 21.046,-12.596 31.659,-18.784c3.7,3.705 7.404,7.409 11.104,11.117"></path><path d="M5181.82,7651.62c14.02,-27.075 43.491,-30.3 68.237,-40.184c52.758,-21.07 106.842,-39.12 158.442,-62.654c21.225,-9.683 36.775,-31.245 56.292,-45.512c7.566,-5.529 18.966,-5.817 28.616,-8.492c-0.254,10.35 3.55,23.892 -1.575,30.425c-12.392,15.796 -26.875,32.225 -44.212,41.454c-59.217,31.521 -118.696,62.763 -186.859,72.684c-24.175,3.516 -47.337,13.983 -70.916,21.583c-3.825,-4.433 -4.2,-4.871 -8.025,-9.304"></path><path d="M5538.13,7783.46c12.463,-10.596 19.213,-16.967 26.592,-22.504c33.104,-24.842 66.754,-48.963 99.466,-74.304c20.88,-16.179 39.738,-35.029 61.075,-50.513c6.317,-4.583 17.984,-1.796 27.196,-2.387c-1.596,9.725 0.313,23.02 -5.362,28.596c-36.167,35.516 -72.629,71.012 -111.788,103.104c-24.958,20.45 -55.2,32.445 -97.179,18.008"></path><path d="M5613.34,7655.56c-4.754,-2.491 -12.484,-4.604 -12.55,-6.941c-0.213,-7.363 -0.146,-17.746 4.404,-21.771c40.292,-35.646 81.304,-70.5 122.758,-104.796c10.046,-8.308 21.963,-15.15 34.117,-19.787c6.158,-2.35 14.767,1.716 22.262,2.883c-1.745,7.1 -1.091,17.012 -5.608,20.871c-45.45,38.816 -91.579,76.85 -137.983,114.533c-7.717,6.267 -17.667,9.783 -27.4,15.008"></path><path d="M5376.71,7751.25c49.517,-22.191 97.292,-44.287 145.796,-64.633c7.55,-3.167 19.633,-0.471 27.175,3.812c2.846,1.617 1.737,17.809 -2.65,23.292c-27.984,34.958 -128.338,56.321 -170.321,37.529"></path><path d="M5830.72,7469.34c19.863,-28.183 43.109,-45.117 70.296,-54.854c23.796,-8.517 49.196,-13.229 74.283,-16.992c6.192,-0.925 13.917,8.379 20.938,12.979c-4.8,5.542 -8.563,14.05 -14.567,16.146c-44.266,15.463 -88.946,29.734 -133.604,44.046c-3.337,1.071 -7.512,-0.475 -17.346,-1.325"></path><path d="M5487.96,7234.46c7.333,-59.021 75.292,-105.4 119.446,-80.684c-39.892,26.946 -76.442,51.638 -119.446,80.684"></path><path d="M5925.73,7527.34c-50.608,28.621 -77.013,54.408 -112.6,37.942c22.754,-25.609 46.863,-45.734 78.096,-54.471c10.829,-3.029 24.454,3.942 36.804,6.342c-0.767,3.396 -1.533,6.791 -2.3,10.187"></path><path d="M6590.68,8791.14c-3.337,5.412 -8.242,13.371 -13.146,21.325c-5.45,-5.625 -14.529,-10.538 -15.8,-16.988c-15.579,-79.25 -30.658,-158.612 -44.158,-238.237c-2.458,-14.513 1.217,-30.717 5.008,-45.375c1.967,-7.621 10.371,-13.579 15.871,-20.288c4.404,7.338 11.571,14.296 12.646,22.092c2.321,16.8 -0.221,34.292 2.287,51.042c9.575,63.958 20.334,127.741 30.742,191.575c1.642,10.075 3.754,20.071 6.55,34.854"></path><path d="M6643.33,9031.52c-2.167,2.425 -8.275,11.275 -9.733,10.562c-7.775,-3.779 -17.942,-8.508 -20.788,-15.537c-13.092,-32.363 -24.258,-65.517 -35.6,-98.563c-3.3,-9.612 -6.596,-19.8 -6.683,-29.75c-0.067,-7.408 5.046,-14.862 7.85,-22.296c6.775,3.784 13.958,7.009 20.154,11.575c3.171,2.338 5.408,6.817 6.646,10.771c12.1,38.721 23.954,77.521 35.696,116.35c1.22,4.038 1.27,8.421 2.458,16.888"></path><path d="M6447.23,8743.06c-5.042,-6.646 -13.517,-12.813 -14.534,-20.025c-4.604,-32.629 -7.691,-65.521 -9.72,-98.413c-0.317,-5.116 7.683,-10.745 11.837,-16.137c4.063,4.821 11.142,9.313 11.704,14.513c4.167,38.562 7.038,77.262 10.317,115.916c-3.2,1.383 -6.404,2.767 -9.604,4.146"></path><path d="M6617.18,8325.12c1.437,6.937 6.612,16.546 3.775,20.733c-17.109,25.279 -35.792,49.529 -54.925,73.333c-1.375,1.709 -14.671,-1.795 -15.409,-4.67c-4.341,-16.95 38.629,-83.046 55.396,-87.242c1.638,-0.408 3.321,-0.65 11.163,-2.154"></path><path d="M6450.46,8817.56c6.692,-9.509 11.529,-16.384 16.371,-23.259c5.833,6.15 11.687,12.275 17.462,18.48c0.521,0.554 0.729,1.604 0.721,2.42c-0.167,12.992 -0.237,26 -1.112,38.946c-0.042,0.592 -9.975,2.367 -11.084,0.734c-7.679,-11.33 -14.237,-23.417 -22.358,-37.321"></path><path d="M6657.45,9175.91c-5.216,-15.133 -11.437,-30.037 -14.929,-45.558c-0.858,-3.808 6.592,-12.721 11.342,-13.662c4.921,-0.98 14.025,3.425 16.379,8c8.583,16.704 8.525,33.737 -12.792,51.22"></path><path d="M6528,8949.01c-7.171,6.408 -11.554,10.329 -15.937,14.25c-5.813,-9.15 -12.538,-17.908 -16.721,-27.75c-0.921,-2.171 7.167,-8.175 11.108,-12.413c6.492,7.809 12.988,15.617 21.55,25.913"></path><path d="M5639.32,9252.8c-28.458,-44.196 -57.746,-87.884 -85.192,-132.7c-44.145,-72.088 -87.104,-144.9 -130.458,-217.467c-3.117,-5.213 -7.275,-10.813 -7.6,-16.425c-0.417,-7.196 2.563,-14.592 4.075,-21.9c7.117,2.392 16.971,2.637 20.85,7.575c12.554,15.962 23.121,33.521 34.079,50.704c42.754,67.058 86.863,133.325 127.379,201.717c19.034,32.133 31.575,68.204 45.817,103c2.858,6.983 0.075,16.279 -0.104,24.508c-2.95,0.329 -5.896,0.658 -8.846,0.988"></path><path d="M5668.85,9662.61c2.054,-8.58 1.825,-16.263 5.387,-21.238c56.501,-78.921 40.955,-161.625 13.384,-244.95c-4.788,-14.475 -12.275,-28.15 -16.042,-42.825c-1.687,-6.575 2.729,-14.717 4.375,-22.146c7.709,3.325 19.088,4.542 22.438,10.371c10.596,18.438 20.491,37.917 26.521,58.221c21.675,72.962 38.954,146.521 2.095,220.125c-11.379,22.725 -23.758,44.962 -58.158,42.442"></path><path d="M5620.46,9420.5c-4.363,-6.996 -10.988,-13.483 -12.692,-21.075c-7.304,-32.508 -13.662,-65.258 -19.037,-98.137c-0.896,-5.479 4.8,-12.038 7.45,-18.096c6.417,3.85 15.242,6.154 18.858,11.8c24.633,38.437 21.579,80.112 14.284,121.996c-2.955,1.171 -5.909,2.341 -8.863,3.512"></path><path d="M5518.82,9252.8c-26.467,-28.938 -41.071,-64.696 -52.146,-102.021c-1.259,-4.238 5.279,-12.8 10.333,-16.059c2.621,-1.695 13.1,2.55 14.579,6.275c13.971,35.192 26.771,70.846 39.904,106.367c-4.225,1.813 -8.445,3.625 -12.67,5.438"></path><path d="M5429.97,9222.92c-13.679,-6.9 -22.57,-8.366 -24.916,-13.087c-10.779,-21.667 -21.271,-43.775 -28.2,-66.829c-1.634,-5.438 10.946,-15.146 16.987,-22.888c9.221,13.7 21.388,26.329 26.871,41.388c5.929,16.291 5.617,34.854 9.258,61.416"></path><path d="M5396.83,9075.97c-8.509,-21.737 -17.592,-41.987 -23.85,-63.075c-1.517,-5.116 4.879,-15.1 10.362,-18.779c3.05,-2.046 14.804,2.596 17.329,7.159c10.246,18.508 19.48,37.766 26.734,57.608c2.104,5.754 -1.538,17.525 -6.392,20.754c-4.479,2.975 -14.121,-1.804 -24.183,-3.667"></path><path d="M5190.39,9265.78c65.854,80.588 80.775,176.671 112.892,265.642c15.571,43.142 30.383,86.692 48.75,128.65c12.583,28.754 35.125,49.633 66.491,59.913c7.096,2.325 12.059,11.154 18.005,16.991c-9.617,2.834 -20.35,9.938 -28.655,7.759c-35.562,-9.325 -68.27,-26.6 -84.366,-61.063c-22.367,-47.896 -46.904,-96.196 -59.313,-147.05c-32.7,-134.046 -91.521,-253.458 -184.2,-355.208c-20.816,-22.859 -50.775,-37.192 -75.271,-57c-8.691,-7.029 -13.658,-18.667 -20.325,-28.196c12.184,0.708 25.821,-1.908 36.313,2.679c63.687,27.829 113.037,72.508 148.662,132.275c7.846,13.167 15.909,26.204 21.017,34.608"></path><path d="M3440.24,8721.1c-11.446,-2.529 -25.996,-2.491 -27.229,-6.525c-12.671,-41.441 -23.696,-83.425 -33.504,-125.645c-0.979,-4.234 9.104,-11.034 14.054,-16.642c4.942,4.396 12.767,7.942 14.358,13.329c10.98,37.15 20.759,74.658 30.63,112.129c1.254,4.767 0.795,9.988 1.691,23.354"></path><path d="M3398.26,8370.62c4.167,49.216 7.8,92.187 11.58,136.825c-46.55,-21.496 -56.642,-101.446 -11.58,-136.825"></path><path d="M3485.16,8840.9c-21.834,-7.525 -34.209,-50.904 -21.671,-63.629c3.475,-3.525 16.854,-4.063 17.425,-2.65c7.292,18.137 13.867,36.691 18.362,55.675c0.634,2.671 -10.762,8.187 -14.116,10.604"></path><path d="M4590.44,10066.5c-9.358,-4.409 -19.871,-7.317 -27.891,-13.467c-68.005,-52.113 -134.559,-106.163 -203.513,-156.963c-67.358,-49.625 -137.3,-95.737 -205.333,-144.47c-8.159,-5.846 -11.496,-18.426 -17.067,-27.884c10.75,0.042 23.862,-3.958 31.9,0.734c143.404,83.695 277.45,180.162 396.754,296.17c11.729,11.404 21.059,25.275 31.5,38c-2.117,2.625 -4.233,5.254 -6.35,7.879"></path><path d="M4935.14,10317.9c-8.371,-0.425 -18.796,2.213 -24.775,-1.787c-34.758,-23.271 -69.696,-46.583 -102.221,-72.8c-39.733,-32.029 -77.146,-66.942 -115.562,-100.604c-5.384,-4.717 -12.742,-8.434 -15.705,-14.354c-4.041,-8.08 -4.745,-17.83 -6.879,-26.863c8.95,1.104 20.284,-0.904 26.467,3.825c37.354,28.558 73.629,58.538 110.071,88.279c38.029,31.038 75.75,62.446 113.804,93.446c7.871,6.413 16.621,11.754 24.967,17.592c-3.388,4.421 -6.78,8.846 -10.167,13.266"></path><path d="M4609.67,9913.5c5.163,3.471 8.767,5.437 11.846,8.029c51.512,43.346 102.992,86.733 154.362,130.246c3.859,3.267 8.388,7.033 9.884,11.483c2.287,6.804 2.208,14.404 3.133,21.671c-7.433,-0.896 -16.85,0.8 -21.971,-3.117c-29.95,-22.916 -58.962,-47.062 -88.146,-70.966c-25.225,-20.663 -50.941,-40.817 -74.875,-62.892c-5.887,-5.429 -6.754,-17.383 -7.516,-26.542c-0.196,-2.316 8.87,-5.404 13.283,-7.912"></path><path d="M4827.88,10090.7c33.084,23.05 65.838,45.141 97.38,68.841c3.612,2.717 2.837,15.746 -0.384,21.479c-2.083,3.713 -14.833,6.23 -18.508,3.5c-30.804,-22.87 -60.854,-46.787 -90.375,-71.3c-3.129,-2.604 -2.963,-11.554 -1.333,-16.587c0.925,-2.858 7.941,-3.742 13.22,-5.933"></path><path d="M4430.27,9803.08c20.767,14.35 40.842,27.905 60.379,42.184c2.146,1.566 2.996,8.766 1.329,10.804c-2.758,3.367 -9.633,7.633 -12.037,6.358c-21.321,-11.287 -42.254,-23.362 -62.671,-36.212c-2.783,-1.746 -4.346,-10.525 -2.45,-13.409c2.771,-4.22 9.179,-6.05 15.45,-9.725"></path><path d="M3714.21,7925.98c-35.671,-1.534 -65.212,-24.721 -65.804,-49.275c-0.179,-7.376 7.1,-14.93 10.967,-22.4c6.308,3.895 14.725,6.354 18.529,11.945c12.246,17.996 22.787,37.142 36.308,59.73"></path><path d="M8804.88,5826.57c-13.2,40.592 -34.313,76.096 -71.921,100.15c-29.254,18.709 -58.717,37.171 -88.967,54.171c-7.667,4.308 -18.708,2.617 -28.196,3.683c3.117,-9.683 3.279,-23.066 9.909,-28.345c19.037,-15.167 42.166,-25.25 60.97,-40.655c28.988,-23.745 55.634,-50.345 83.455,-75.537c8.333,-7.546 17.258,-14.433 25.916,-21.621c2.946,2.717 5.888,5.438 8.834,8.154"></path><path d="M8219.3,6280.49c6.771,-4.925 12.916,-11.291 20.416,-14.537c41.88,-18.133 83.796,-36.283 126.421,-52.533c9.18,-3.5 21.325,0.783 32.109,1.483c-5.617,9.404 -9.063,23.883 -17.209,27.362c-42.783,18.271 -86.558,34.325 -130.491,49.721c-8.238,2.888 -18.75,-0.716 -28.213,-1.329c-1.012,-3.387 -2.021,-6.779 -3.033,-10.167"></path><path d="M8495.4,6148.48c27.65,-17.246 53.458,-34.079 80.358,-48.942c2.55,-1.408 17.633,10.079 17.192,14.638c-2.684,27.666 -69.234,53.22 -97.55,34.304"></path><path d="M8852.19,5877.9c7.433,81.242 -54.454,111.167 -104.671,148.221c-16.196,11.95 -38.271,26.083 -64.325,-1.125c65.175,-40.663 127.484,-81.917 168.996,-147.096"></path><path d="M8398.24,6155c7.333,-59.021 75.291,-105.4 119.446,-80.684c-39.892,26.946 -76.442,51.638 -119.446,80.684"></path><path d="M7677.44,5193.55c-10.725,-38.908 -1.991,-67.233 21.771,-87.896c24.525,-21.321 52.209,-39.346 80.034,-56.312c7.116,-4.342 19.979,0.754 30.204,1.512c-3.725,8.654 -5.15,20.025 -11.588,25.467c-22.591,19.108 -49.137,33.979 -69.721,54.854c-11.9,12.063 -15.612,32.408 -22.291,49.313c-3.421,8.67 -5.267,17.962 -7.825,26.97c-8.359,-5.646 -16.713,-11.291 -20.584,-13.908"></path><path d="M7755.94,5218.78c-13.1,-38.362 29.042,-95.429 63.4,-93.833c5.283,0.246 12.808,3.566 14.842,7.675c1.979,3.996 0.154,12.962 -3.304,16.066c-23.263,20.88 -42.75,43.446 -46.125,76.413c-0.325,3.175 -9.13,8.887 -10.63,7.962c-8.033,-4.954 -15,-11.641 -18.183,-14.283"></path><path d="M5296.94,8339.44c-25.554,-6.942 -54.079,-8.821 -76.125,-21.746c-75.571,-44.308 -149.329,-91.787 -222.842,-139.496c-35.037,-22.741 -68.804,-47.708 -101.242,-74.008c-7.733,-6.271 -7.845,-21.929 -11.462,-33.271c11.496,1.834 25.254,0.209 34.154,6.021c122.804,80.229 244.95,161.467 367.204,242.542c4.717,3.129 8.871,7.104 13.288,10.687l-2.975,9.271Z"></path><path d="M5503.79,8335.33c-29.154,-13.084 -59.346,-24.275 -87.263,-39.613c-80.612,-44.283 -160.312,-90.229 -240.346,-135.571c-4.441,-2.512 -10.775,-4.512 -12.504,-8.404c-3.754,-8.446 -5.096,-17.962 -7.425,-27.041c9.075,-1.005 20.384,-5.984 26.854,-2.35c36.517,20.516 71.7,43.391 107.659,64.925c64.858,38.837 130.079,77.075 194.779,116.17c9.087,5.492 16.096,14.421 24.071,21.759c-1.942,3.375 -3.884,6.75 -5.825,10.125"></path><path d="M5576.18,8509.58c-25.571,-9.929 -43.954,-14.883 -60.15,-23.8c-36.546,-20.112 -72.338,-41.667 -107.613,-63.942c-6.304,-3.979 -8.658,-14.225 -12.837,-21.579c7,-2.279 16.433,-8.679 20.633,-6.208c51.65,30.429 102.588,62.062 153.438,93.821c2.417,1.508 2.3,7.071 6.529,21.708"></path><path d="M5713.98,8490.25c-16.567,-7.821 -33.596,-14.817 -49.575,-23.7c-15.958,-8.875 -31.613,-18.7 -45.813,-30.091c-4.95,-3.971 -7.562,-14.205 -6.583,-20.896c0.554,-3.759 13.046,-10.234 16.046,-8.475c34.096,20.004 69.375,39.008 92.95,71.787c-2.342,3.792 -4.683,7.584 -7.025,11.375"></path><path d="M7559.57,9031.86c-20.133,32.309 -170.117,70.421 -202.883,51.555c17.225,-24.571 178.554,-65.567 202.883,-51.555"></path><path d="M7312.95,8702.84c-4.329,7.154 -7.016,16.641 -13.279,21.058c-26.516,18.713 -53.387,37.208 -81.754,52.825c-7.758,4.271 -21.179,-1.75 -32,-3.05c5.658,-9.029 9.288,-21.071 17.367,-26.512c22.6,-15.23 46.787,-28.209 70.879,-41.084c9.933,-5.304 21.221,-8.066 31.892,-11.987c2.3,2.916 4.595,5.833 6.895,8.75"></path><path d="M7851.64,8981.48c-30.521,6.062 -47.475,-12.442 -65.467,-26.771c-2.646,-2.108 -2.329,-13.217 0.521,-15.725c4.55,-4.008 13.054,-7.062 18.696,-5.675c22.695,5.571 39.812,18.163 46.25,48.171"></path><path d="M7492.69,8485.02c12.363,11.095 21.263,19.083 30.163,27.074c-5.65,4.263 -12.38,13.013 -16.746,11.963c-13.609,-3.275 -26.321,-10.263 -39.379,-15.808c7.412,-6.629 14.82,-13.259 25.962,-23.229"></path><path d="M7896.73,6473.12c-13.017,7.084 -25.459,15.613 -39.138,21.017c-90.275,35.658 -180.758,70.804 -271.337,105.687c-13.28,5.117 -27.242,9.734 -41.25,11.23c-9.638,1.033 -19.892,-3.717 -29.871,-5.88c6.871,-7.4 12.358,-18.125 20.841,-21.641c42.413,-17.584 85.442,-33.742 128.575,-49.529c64.25,-23.513 128.655,-46.621 193.28,-69.075c11.112,-3.863 23.645,-3.642 35.525,-5.309c1.125,4.5 2.25,9 3.375,13.5"></path><path d="M8033.95,6418.84c6.483,-29.254 61.458,-57.079 91.258,-48.187"></path><path d="M7411.51,6649.39c-14.15,8.6 -20.904,15.754 -27.95,16.059c-6.021,0.262 -12.383,-7.338 -18.596,-11.459c6.271,-5.158 11.892,-12.829 19.017,-14.671c5.558,-1.437 12.992,4.371 27.529,10.071"></path><path d="M4734.75,8909.42c42.046,34.455 84.625,68.3 125.5,104.088c5.442,4.767 2.246,19.392 3.05,29.45c-9.213,-1.867 -21.221,-0.671 -27.175,-6.104c-36.013,-32.859 -70.879,-66.988 -105.425,-101.4c-4.396,-4.375 -4.675,-12.879 -6.863,-19.471c3.638,-2.188 7.275,-4.375 10.913,-6.563"></path><path d="M5036.15,9334.59c-33.704,-20.05 -58.025,-50.058 -79.416,-82.587c-2.425,-3.692 1.358,-13.78 5.25,-18.359c2.021,-2.383 13.279,-1.346 15.771,1.792c23.55,29.646 46.108,60.079 68.954,90.283c-3.521,2.959 -7.038,5.913 -10.559,8.871"></path><path d="M4967.15,9383.03c-15.092,-2.65 -24.025,-1.484 -27.638,-5.325c-16.583,-17.621 -33.021,-35.754 -46.317,-55.821c-3.137,-4.734 6.1,-17.663 9.642,-26.821c12.792,10.446 28.092,19.021 37.692,31.85c10.387,13.883 15.454,31.742 26.621,56.117"></path><path d="M4868.23,9200.57c-14.43,-18.345 -28.984,-35.108 -41.067,-53.487c-2.933,-4.458 0.304,-15.863 4.492,-20.971c2.325,-2.842 14.916,-1.796 18.658,1.842c15.158,14.754 29.562,30.525 42.246,47.421c3.675,4.899 3.596,17.22 -0.121,21.712c-3.425,4.146 -14.033,2.358 -24.208,3.483"></path><path d="M3501.36,8329.63c5.421,-33.05 40.446,-57.467 80.679,-60.042c52.825,-3.383 100.429,13.9 145.888,38.255c19.729,10.57 38.858,22.512 57.104,35.462c5.479,3.888 7.05,13.279 10.412,20.15c-8.021,2.479 -17.446,8.95 -23.796,6.708c-21.016,-7.42 -42.416,-15.691 -60.975,-27.77c-59.566,-38.784 -120.958,-44.863 -186.1,-16.517c-6.095,2.654 -13.504,2.279 -23.212,3.754"></path><path d="M7361.04,6065.15c-16.712,45.079 -93.479,96.225 -134.229,92.741c-6.096,-0.521 -15.271,-5.041 -16.633,-9.612c-1.359,-4.559 4.679,-12 8.712,-17.221c2.242,-2.896 6.833,-4.504 10.679,-5.554c43.159,-11.817 75.771,-37.917 102.559,-73.017c4.262,-5.587 14.52,-6.604 22.008,-9.737c2.771,8.991 5.542,17.979 6.904,22.4"></path><path d="M7383.68,5886.96c25.083,21.384 31.345,97.684 11.85,116.6c-4.43,4.296 -12.338,6.913 -18.5,6.671c-2.825,-0.112 -7.821,-9.162 -7.538,-13.904c1.863,-31.096 4.721,-62.142 7.738,-93.158c0.441,-4.555 3.433,-8.859 6.45,-16.209"></path><path d="M3886.95,7366.71c28.775,-40.496 57.554,-80.988 86.329,-121.483c8.462,5.979 16.925,11.958 25.387,17.937c-29.025,39.875 -58.046,79.75 -87.066,119.621c-8.217,-5.358 -16.434,-10.717 -24.65,-16.075"></path><path d="M8049.28,7469.86c2.879,9.179 4.637,14.788 6.396,20.4c-10.73,1.513 -21.488,4.025 -32.175,3.771c-2.359,-0.058 -4.488,-9.904 -6.721,-15.242c9.791,-2.691 19.587,-5.379 32.5,-8.929"></path><path d="M7608.69,7481.49c18.541,-23.538 80.145,-24.738 103.129,-3.792"></path><path d="M7311.04,7853.71c-8.833,-14.008 -16.096,-20.642 -16.516,-27.683c-0.363,-6.017 7.133,-12.5 11.15,-18.78c5.262,6.184 13.025,11.675 14.983,18.771c1.525,5.534 -4.158,13.063 -9.617,27.692"></path><path d="M7065.11,5279.38c-37.763,75.508 -91.892,144.691 -142.217,212.041c-50.129,67.075 -101.088,138.167 -162.633,195.454c-23.605,21.971 11.812,57.271 35.354,35.355c63.329,-58.942 115.579,-132.359 167.246,-201.292c51.466,-68.662 106.879,-139.254 145.425,-216.321c14.35,-28.7 -28.767,-54.05 -43.175,-25.237"></path><path d="M7281.31,5311.53c-29.308,74.567 -73.408,142.379 -128.846,200.117c-22.287,23.212 13.017,58.621 35.358,35.354c61.725,-64.288 109.13,-139.304 141.7,-222.179c11.775,-29.959 -36.558,-42.95 -48.212,-13.292"></path><path d="M7507.85,5324.81l-59.017,145.455c-12.096,29.804 36.254,42.766 48.212,13.291c19.675,-48.483 39.346,-96.971 59.017,-145.454c12.096,-29.804 -36.254,-42.767 -48.212,-13.292"></path><path d="M9025.25,5945.64c-60.191,78.775 -148.345,130.488 -234.804,178.992c-456.504,256.1 -931.537,479.167 -1420.16,666.879c-15.95,35.204 17.962,76.646 56.004,83.475c38.038,6.838 75.975,-9.612 111.133,-25.671c429.917,-196.354 859.834,-392.708 1289.76,-589.062c-287.955,242.646 -622.771,429.483 -980.48,547.125c-64.383,21.175 -131.208,41.021 -184.266,83.196c-56.004,44.521 -91.146,109.525 -124.771,172.679c-155.992,292.962 -311.983,585.925 -467.975,878.887c45.212,-127.941 33.492,-405.737 -8.546,-398.2c-50.55,9.063 -173.229,692.73 -85.133,1033.88c10.387,40.212 24.108,82.679 56.833,108.25c58.063,45.362 142.821,16.045 206.879,-20.363c137.296,-78.037 259.604,-182.333 358.35,-305.579c-0.829,116.8 -110.037,197.929 -194.546,278.562c-84.512,80.63 -151.279,222.917 -68.945,305.771c78.429,78.925 209.541,25.771 312.958,-15.291c103.412,-41.063 263.112,-34.792 278.375,75.425c-386.183,-81.105 -719.821,385.033 -1110.58,330.1c-255.884,-35.975 -432.584,-298.73 -451.946,-556.405c-19.363,-257.67 82.825,-508.108 196.816,-740.004c49.117,-99.912 108.409,-349.175 31.53,-314.421c-90.738,41.025 -211.275,671.867 -465.3,899.463c-188.825,169.179 -507.15,166.692 -693.305,-5.417c-227.187,-210.033 -481.366,-390.846 -754.304,-536.566c-64.725,-34.559 -162.462,-58.317 -196.821,6.516c504.68,280.063 1046.52,601.513 1252.9,1140.53c55.954,146.134 83.654,308.746 42.037,459.592c-41.621,150.842 -163.65,285.567 -318.267,309.637c-140.262,21.83 -277.508,-46.129 -401.27,-115.654c-453.659,-254.846 -879.434,-559.287 -1267.3,-906.15c-59.392,-53.116 -147.642,-109.416 -210.534,-60.496c695.625,876.038 1817.74,1266.65 2859.79,1673.42c44.017,17.179 96.329,47.192 91.621,94.209c-315.863,-73.605 -621.542,-190.771 -905.684,-347.134c-216.004,-118.866 -632.229,-309.396 -618.716,-252.821c13.625,57.046 760.479,416.525 987.058,812.017c-306.804,-216.242 -553.479,-372.021 -803.375,-608.567c-49.412,-46.775 -5.375,118.213 50.446,157.117c222.675,155.183 300.979,310.721 366.808,574.033c-183.854,-403.875 -627.196,-605.77 -999.046,-847.941c-486.483,-316.825 -894.741,-752.825 -1178.95,-1259.06c-63.325,-112.791 -121.754,-233.2 -128.754,-362.366c-7,-129.167 48.908,-269.438 164.392,-327.725c134.666,-67.967 295.975,-7.709 433.266,54.791c645.205,293.721 1320.08,691.784 1558.2,1359.5c17.416,48.842 100.629,30.1 116.97,-19.108c16.342,-49.208 -10.041,-101.512 -36.733,-145.967c-426.85,-711.004 -1166.4,-1226.41 -1981.2,-1380.75c-166.133,-152.175 -103.267,-578.584 107.029,-854.509c54.742,100.359 91.483,188.338 114.121,290.263c-31.25,34.041 -62.183,68.383 -91.642,103.929c-21.85,26.367 -40.233,56.137 -56.533,86.337c-7.704,14.28 -6.846,33.18 -9.867,49.984c4.304,1.45 8.609,2.9 12.917,4.346c5.625,-7.659 11.387,-15.217 16.854,-22.988c22.629,-32.175 43.779,-65.5 68.058,-96.375c22.284,-28.333 45.459,-55.971 68.492,-83.721c3.488,19.542 6.563,39.613 9.15,60.5c0.688,5.571 1.396,11.229 2.142,16.938c-20.025,28.008 -39.584,56.304 -57.65,85.521c-9.579,15.5 -4.467,41.108 -2.871,61.833c0.454,5.925 12.217,10.979 18.792,16.433c3.541,-6.612 7.737,-12.962 10.504,-19.883c10.083,-25.238 16.562,-52.521 30.216,-75.592c3.021,-5.1 6.2,-10.104 9.446,-15.071c11.675,58.413 33.384,113.405 85.942,134.659c11.733,-134.092 -4.879,-270.6 -48.429,-397.967c-9.138,-26.721 -18.275,-53.442 -27.413,-80.167c64.879,-89.154 134.842,-174.729 188.367,-271.875c-8.496,-5.958 -16.996,-11.912 -25.496,-17.87c-58.629,83.9 -117.258,167.791 -175.887,251.691c-8.755,-25.608 -17.509,-51.212 -26.267,-76.821c82.704,-114.666 176.9,-283.787 227.65,-389.237c-80.271,78.967 -179.717,229.258 -238.571,357.3c-7.304,-21.371 -14.612,-42.742 -21.921,-64.117c93.429,-144.779 248.013,-407.3 311.667,-497.508c-4.654,-3.221 -9.313,-6.442 -13.967,-9.663c-55.541,33.28 -236.512,319.088 -308.758,474.83c-3.958,-11.571 -7.917,-23.146 -11.871,-34.717c-4.329,-12.65 -8.654,-25.346 -12.867,-38.096c54.517,-84.833 331.163,-533.804 382.23,-612.987c-8.8,-5.671 -17.6,-11.334 -26.4,-17.005c-47.959,73.142 -290.292,464.905 -368.925,588.325c-8.675,-29.445 -15.95,-59.2 -20.3,-89.32c48.741,-76.88 358.92,-564.742 394.512,-620.946l-40.529,-6.734c-30.838,49.055 -266.046,419.409 -358.192,564.842c0.704,-51.333 11.775,-100.108 29.275,-147.35c63.034,-160.337 263.484,-406.908 331.429,-518.417c-5.879,-3.437 -11.754,-6.87 -17.629,-10.308c-17.321,10.613 -50.871,51.217 -89.866,105.654c16.783,-43.437 29.375,-88.462 37.712,-134.283c23.479,-35.454 46.213,-71.421 68.888,-107.4c21.908,-34.767 42.575,-70.313 63.795,-105.513c-7.437,-5.087 -14.879,-10.179 -22.32,-15.266c-36.95,36.533 -69.271,76.596 -98.617,118.866c0.792,-23.183 0.55,-46.395 -0.804,-69.55c34.125,-55.508 67.154,-111.712 99.55,-168.254c6.029,-10.521 5.733,-24.662 9.916,-44.525c-15.525,5.3 -25.833,5.525 -29.137,10.446c-29.55,44.017 -58.933,88.154 -87.771,132.633c-3.542,-22.92 -8.129,-45.683 -13.854,-68.17c-0.717,-2.809 -1.325,-5.642 -1.963,-8.467c34.559,-44.871 75.846,-86.863 81.28,-146.371c-6.063,-3.971 -12.125,-7.942 -18.184,-11.912c-23.529,32.729 -47.354,65.25 -70.537,98.212c-3.238,-116.217 55.7,-234.25 154.287,-297c-38.158,-46.667 -128.771,-23.683 -140.075,35.525c-25.096,-140.746 -50.196,-281.492 -75.291,-422.237c-11.825,-66.292 -12.642,-153.975 49.937,-178.83c65.942,-26.191 97.954,-114.887 63.942,-177.154c23.904,30.196 47.804,60.392 71.708,90.584c42.296,-10.959 54.908,-68.746 37.967,-109.021c-16.942,-40.279 -52.504,-69.067 -80.509,-102.609c-78.354,-93.829 -96.375,-224.958 -86.616,-346.808c8.9,-111.237 37.979,-219.904 52.725,-330.479l-48.175,-21.85l194.229,-105.446l269.375,-20.996l339.271,162.713l129.233,71.796l137.842,118.47l122.829,-18.333l372.833,191.421l395.809,196.075l353.087,558.646l15.838,40.975l0.583,-0.846c-15.033,-74.883 -45.817,-146.579 -89.858,-208.983c154.137,58.975 341.208,114.041 472.55,14.116c38.375,-29.191 79.687,-72.766 125.508,-57.766c353.775,115.829 492.904,224.229 759.192,218.37c-10.013,25.321 -14.275,51.967 -5.025,77.021c14.804,40.079 81.341,55.696 98.725,16.671c56.079,-125.908 153.712,-242.308 286.458,-279.417c132.742,-37.108 298.129,32.25 331.454,165.996c27.346,109.759 -4.971,275.05 106.079,296.571c201.546,39.058 396.242,113.192 572.721,218.079c51.788,30.779 103.917,66.159 133.546,118.617c48.754,86.321 22.7,199.437 -37.488,278.212m-1066.58,1467.9c27.821,-1.396 56.242,-1.762 82.896,6.338c26.654,8.1 51.642,25.983 61.912,51.879c8.184,20.625 6.3,43.808 2.4,65.654c-2.025,11.35 -4.92,23.288 -13.133,31.379c-8.212,8.092 -23.421,10.059 -30.667,1.088c-44.916,-55.579 -126.141,-61.142 -197.595,-62.196c-111.134,-1.642 -222.271,-3.283 -333.409,-4.925c-18.683,-0.279 -37.796,-0.492 -55.496,5.504c-12.745,4.317 -27.929,11.413 -38.3,2.846c-0.683,-38.113 36.35,-72.467 74.309,-68.929c148.921,13.883 297.7,-21.142 447.083,-28.638m-623.05,486.704l-8.887,47.392c-1.055,5.621 -2.45,11.804 -7.1,15.125c-4.65,3.329 -13.2,0.563 -12.613,-5.129c4.525,-43.717 -5.521,-88.817 -28.162,-126.483c-1.725,-2.867 -3.559,-5.813 -3.955,-9.13c-0.358,-3.037 0.53,-6.066 1.413,-8.995c5.317,-17.705 10.633,-35.405 15.95,-53.109c1.496,-4.966 3.142,-10.187 6.971,-13.683c3.829,-3.5 10.579,-4.354 13.904,-0.375c1.325,1.592 1.908,3.658 2.45,5.654c5.442,19.996 10.883,39.988 16.329,59.983c4.017,14.763 8.063,29.68 8.608,44.967c0.53,14.708 -2.195,29.317 -4.908,43.783m-1626.94,2231.13c122.663,39.283 247.146,79.437 354.167,151.1c10.821,7.245 22.788,20.129 16.133,31.32c-20.587,20.409 -25.345,31.5 -114.12,4.342c-177.038,-69.837 -354.075,-139.675 -531.113,-209.512c52.313,-42.4 129.171,-23.938 193.3,-3.4l81.633,26.15Zm3481.81,-4458.39c-34.634,-183.417 -242.417,-269.171 -420.709,-324.429c-288.816,-83.613 -385.862,-142.975 -417.983,-326.85c-29.329,-167.867 -206.758,-285.108 -376.975,-277c-159.45,7.596 -303.921,107.212 -395.637,238.671c-303.967,-85.179 -324.221,-23.817 -671.713,-194.675c-70.896,-34.859 -161.592,-78.171 -220.646,-25.688c-100.633,89.438 -245.904,125.888 -376.841,94.554c-130.938,-31.333 -243.971,-129.595 -293.217,-254.9c-27.829,-70.816 -50.833,-163.304 -125.65,-177.166c-109.346,-20.259 -207.763,-77.492 -303.679,-133.767c-124.892,-73.279 -249.788,-146.554 -374.675,-219.833c-69.467,-40.754 -160.725,-4.742 -237.113,-30.271c-128.475,-42.933 -198.608,-247.821 -327.896,-207.396c-70.454,22.029 -122.679,-65.512 -189.045,-97.829c-40.371,-19.658 -87.392,-18.142 -132.259,-16.196c-149.875,6.483 -322.829,25.371 -405.337,150.658c-44.554,67.65 -51.679,152.425 -57.509,233.217c-13.225,183.229 -22.587,381.967 79.796,534.492c-2.741,77.958 -30.45,154.85 -78.062,216.646c-87.679,113.783 -44.075,275.154 -21.075,416.95c17.846,110.041 20.529,221.908 23.175,333.358c2.208,93.137 4.416,186.271 6.629,279.408c2.1,88.525 4.112,178.042 -14.671,264.575c-58.162,267.942 -321.692,497.009 -265.108,765.288c54.116,256.587 -424.367,766.783 -122.254,1229.43c-167.85,22.192 -280.555,200.479 -283.655,369.758c-3.095,169.279 76.813,328.329 163.863,473.546c337.412,562.875 815.704,1040.57 1379,1377.27c329.342,196.858 726.942,396.4 803.171,772.446c11.887,58.633 105.529,61.671 142.017,14.254c36.487,-47.413 29.987,-114.442 16.116,-172.638c-28.712,-120.45 -81.654,-235.066 -154.75,-335.016c115.967,105.287 239.938,201.754 370.492,288.296c33.117,21.95 73.937,44.062 110.521,28.554c73.033,-30.959 26.758,-141.446 -27.934,-198.904c-88.083,-92.538 -176.17,-185.075 -264.254,-277.613c227.109,119.404 469.021,210.617 718.434,270.883c34.779,8.405 72.058,16.092 105.641,3.75c72.184,-26.525 81.875,-134.379 34.429,-194.9c-47.441,-60.525 -127.887,-83.304 -203.645,-96.52c-75.759,-13.213 -155.68,-21.58 -219.592,-64.346c41.175,-108.171 -56.463,-222.6 -162.808,-268.284c-106.342,-45.687 -227.905,-54.275 -326.871,-114.287c171.9,-122.475 242.583,-351.608 224.2,-561.875c-18.388,-210.267 -112.284,-406.033 -214.65,-590.617c196.962,-5.641 391.996,-67.646 556.054,-176.779c-22.25,225.683 78.858,459.729 258.429,598.229c179.575,138.496 431.633,176.821 644.258,97.963c271.446,-100.671 516.946,-378.846 792.271,-289.309c81.6,26.542 147.879,-94.691 105.896,-169.525c-41.987,-74.833 -137.408,-100.02 -223.1,-104.475c-130.833,-6.8 -263.212,18.259 -382.508,72.409c-41.788,-104.679 62.437,-205.288 150.866,-275.167c88.434,-69.883 179.821,-190.862 114.375,-282.625c-70.841,-99.325 -230.741,-31.829 -311.441,59.667c-80.704,91.496 -165.504,212.283 -287.084,202.216c-128.22,-217.7 -71.154,-525.966 126.5,-683.337c-57.966,46.833 -4.579,155.45 69.925,157.237c74.505,1.792 133.555,-71.308 143.363,-145.183c9.812,-73.875 -16.567,-147.233 -42.513,-217.096c-20.02,-53.916 50.13,-95.833 106.684,-106.304c176.737,-32.717 363.675,-7.779 525.654,70.125c106.729,51.338 222.667,-100.587 177.704,-210.154c-44.962,-109.567 -177.808,-156.117 -296.237,-155.046c-118.43,1.071 -234.85,36.483 -353.267,34.283c-27.421,-214.775 200.596,-364.604 395.817,-458.245c236.391,-113.388 472.779,-226.78 709.17,-340.171c248.38,-119.138 401.721,-376.363 493.059,-636.254c26.841,-76.384 49.875,-157.9 34.85,-237.463"></path><path d="M5985.62,5746.09c-5.113,-12.45 -10.692,-24.65 -16.721,-36.6l80.858,-53.296l20.788,33.687l-84.925,56.209Zm-90.183,-148.509l100.171,-64.883l20.787,33.687l-96.688,62.817c-7.775,-10.742 -15.858,-21.292 -24.27,-31.621m-103.721,-106.933l128.671,-86.679l20.783,33.687l-119.438,80.659c-9.816,-9.396 -19.841,-18.609 -30.016,-27.667m-68.163,-56.904c-5.85,-4.609 -11.725,-9.167 -17.612,-13.696l-9.384,-16.079l195.275,-130.263l20.788,33.688l-189.067,126.35Zm-629.07,-659.367c-8.255,-10.121 -16.605,-20.187 -24.98,-30.242c21.892,-30.783 65.234,-99.02 72.129,-165.4l44.125,0c0,0 12.196,127.188 -91.275,195.642m-85.262,-104.471c-3.95,-5.15 -7.858,-10.316 -11.688,-15.525c-1.245,-2.604 -2.091,-5.016 -2.008,-6.708c2.008,-40.875 31.079,-125.304 45.313,-157.304c3.991,-8.979 38.958,5.229 38.958,5.229c-0,-0 -23.888,141.3 -44.588,165.962c-7.579,9.03 -20.912,8.8 -25.987,8.346m-57.404,-134.046l-19.55,-25.129l45.462,-174.975l45.354,-10.412l-45.354,199.966l-25.912,10.55Zm-211.517,-271.033c-14.742,-4.25 -29.658,-8.204 -44.362,-12.396c-16.196,-75.896 -30.396,-152.233 -44.234,-228.612c-1.054,-5.834 6.188,-13.175 13.634,-27.792c10.833,17.167 20.895,27.104 23.895,38.854c18.559,72.634 36.321,145.509 52.138,218.779c0.75,3.484 0.167,7.255 -1.071,11.167m-167.175,-70.829c-2.062,1.025 -5.429,1.125 -9.029,0.642c-5.746,-3.53 -11.442,-7.159 -17.092,-10.871c-18.504,-59.009 -68.608,-233.471 -53.671,-291.754c7.042,-1.709 14.084,-3.417 21.125,-5.125c15.13,52.354 56.775,230.254 70.438,282.991c1.817,7 -5.179,20.85 -11.771,24.117m-201.917,-152.129c-20.858,-65.017 -28.591,-119.579 -32.375,-152.229c-1.312,-11.359 29.463,-0.067 32.513,10.95c16.108,58.216 43.225,115.083 62.883,196.125c-21.083,-18.075 -41.987,-36.542 -63.021,-54.846m-144.975,-112.438c-4.012,-22.012 -5.22,-41.479 -5.395,-52.571c7.87,-1.987 23.1,-4.9 30.971,-6.883c7.97,31.2 15.937,62.408 23.908,93.608c-16.117,-12.004 -32.571,-23.462 -49.483,-34.154m-54.925,69.879c198.629,88.821 333.445,312.713 549.591,337.717c64.767,7.492 95.054,81.642 118.038,142.654c70.75,187.825 191.116,352.146 310.033,513.834c116.371,158.229 -135.054,209.116 39.546,299.079c96.242,49.587 146.971,173.287 113.258,276.166c-28.979,-17.487 -76.025,-29.758 -88.625,1.659c-4.716,11.758 -1.412,25.062 2.35,37.162c71.729,230.55 284.684,388.529 392.929,604.354c36.409,72.596 60.546,151.03 99.617,222.225c39.067,71.196 97.254,137.209 175.108,160.313c12.017,3.567 21.621,-10.983 23.125,-23.425c7.35,-60.692 -59.421,-99.45 -102.771,-142.558c-53.487,-53.188 -76.712,-128.538 -106.17,-197.98c-82.3,-194.016 -225.471,-392.512 -363.967,-551.366c30.092,17.096 68.475,-14.213 73.879,-48.396c5.408,-34.183 -7.242,-31.663 -17.442,-64.733c-10.2,-33.071 -29.937,-264.163 -7.133,-290.196c383.667,254.304 558.075,517.583 642.308,624.325c15.863,20.104 33.025,41.162 57.175,49.679c24.146,8.517 56.805,-1.942 62.363,-26.938c3.775,-16.983 -5.613,-33.745 -9.704,-50.654c-4.092,-16.908 1.55,-40.033 18.833,-41.996c137,115.596 280.663,223.288 430.042,322.367c17.987,11.933 37.171,24.071 57.787,29.088c-0.429,1.22 -0.858,2.441 -1.291,3.658l-126.921,359.683c-10.413,29.513 -20.809,62.275 -9.013,91.259c11.792,28.987 57.242,43.437 74.346,17.229c3.183,-4.875 4.988,-10.5 6.754,-16.046c27.313,-85.763 54.625,-171.521 81.938,-257.283c42.246,-132.65 84.966,-266.392 153.546,-387.542c68.579,-121.154 165.85,-230.354 292.079,-289.063c141.366,-65.75 303.921,-62.691 459.629,-54.787c37.029,1.879 84.354,12.954 88.921,49.75c5.121,41.283 16.308,81.808 33.087,119.879c9.384,21.283 22.804,43.75 45.184,50.096c22.379,6.342 50.875,-16.75 40.445,-37.542c-38.325,-76.387 -57.016,-164.912 -38.987,-248.45c18.029,-83.537 76.533,-160.346 157.375,-188.071c39.275,-13.47 81.575,-15.183 123.087,-14.145c52.834,1.32 106.484,7.129 155.134,27.775c48.654,20.645 92.166,57.825 110.887,107.25c22.059,7.704 44.196,-18.138 41.838,-41.384c-2.359,-23.25 -20.067,-41.725 -37.746,-57.004c-97.346,-84.112 -230.1,-131.408 -357.013,-110.342c-126.916,21.071 -242.645,117.055 -271.304,242.475c-3.716,16.259 -12.575,37.667 -28.896,34.242c-173.504,-36.358 -358.254,-22.058 -521.679,46.629c-163.425,68.692 -304.262,192.413 -387.816,348.763c-19.667,36.8 -36.134,75.125 -51.18,114.062c-7.508,-3.071 -15.279,-5.675 -22.629,-8.121c-106.096,-35.25 -190.183,-110.166 -275.041,-185.016l131.32,-176.767l0.055,0.058c29.02,-39.875 58.654,-79.329 87.675,-119.204c-8.463,-5.979 -25.4,-22.812 -33.863,-28.791c-23.221,32.675 -44.437,61.65 -66.875,92.879l-0.017,-0.05c-5.041,7.062 -10.495,14.721 -16.22,22.758c-0.034,0.05 -0.067,0.092 -0.1,0.142c-43.93,61.7 -104.23,146.841 -124.717,174.987c-8.217,-5.358 -16.433,-10.716 -24.65,-16.079c25.237,-35.512 111.996,-159.087 152.367,-216.267l-0.03,-0.075c5.046,-6.67 127.271,-168.454 176.813,-258.37c-8.5,-5.955 -16.996,-11.909 -25.496,-17.867c-61.929,77.079 -170.367,226.95 -170.367,226.95l-0.02,-0.058c-47.917,65.529 -116.93,160.241 -158.863,219.237c-8.754,-6.137 -28.212,-27.346 -36.962,-33.483c56.475,-80.817 120.225,-151.396 179.254,-228.621l-22.342,-57.804l-190.225,243.175l-14.129,-49.654l188.175,-235.38l272.021,-356.229l-27.042,-28.746l-268.629,323.792c-57.163,81.008 -115.163,163.2 -176.788,250.525c-3.129,-14.212 -12.37,-55.762 -12.37,-55.762l168.308,-248.705l-0.004,-0.008l136.529,-213.742l-23.154,-56.1l-136.521,209.955c-43.017,66.704 -86.038,133.408 -129.054,200.112c-9.404,-6.058 -18.813,-12.117 -28.221,-18.175c47.733,-72.792 95.462,-145.583 143.192,-218.371l-0.009,-0.021c3.05,-5.25 70.221,-120.875 103.542,-173.5c-8.146,-5.054 -24.346,-26.425 -32.496,-31.479c-29.396,46.754 -90.287,142.229 -93.408,147.121l-0,-0.004c-32.309,51.021 -64.617,102.046 -96.925,153.067c-7.967,-4.93 -15.929,-9.863 -23.896,-14.796c35.975,-57.217 71.946,-114.429 107.917,-171.65l49.195,-79.709l-29.458,-26.266l-38.342,55.483l-0.583,0.846l-15.837,-40.975l-353.088,-558.646l-395.812,-196.075l-372.83,-191.421l-122.829,18.334l-137.841,-118.471l-129.238,-71.796l-339.267,-162.713l-269.379,20.996l-194.229,105.446l48.179,21.85l164.546,74.621c6.113,3.454 12.254,6.537 18.133,9.162"></path><path d="M6706.33,5210.07l-38.375,-39.354l-244.775,312.509l22.35,57.825l260.8,-330.98Z"></path></g></svg>